<svg width="205" height="32" viewBox="0 0 205 32" fill="none" xmlns="http://www.w3.org/2000/svg">
<path d="M22.272 0.664L14.08 23H8.64L0.448 0.664H5.248L11.392 18.424L17.504 0.664H22.272ZM40.99 5.272V23H36.478V20.76C35.902 21.528 35.1447 22.136 34.206 22.584C33.2887 23.0107 32.286 23.224 31.198 23.224C29.8113 23.224 28.5847 22.936 27.518 22.36C26.4513 21.7627 25.6087 20.8987 24.99 19.768C24.3927 18.616 24.094 17.2507 24.094 15.672V5.272H28.574V15.032C28.574 16.44 28.926 17.528 29.63 18.296C30.334 19.0427 31.294 19.416 32.51 19.416C33.7473 19.416 34.718 19.0427 35.422 18.296C36.126 17.528 36.478 16.44 36.478 15.032V5.272H40.99ZM61.1863 13.752C61.1863 14.392 61.1436 14.968 61.0583 15.48H48.0982C48.2049 16.76 48.6529 17.7627 49.4422 18.488C50.2316 19.2133 51.2022 19.576 52.3542 19.576C54.0182 19.576 55.2022 18.8613 55.9062 17.432H60.7383C60.2262 19.1387 59.2449 20.5467 57.7942 21.656C56.3436 22.744 54.5622 23.288 52.4502 23.288C50.7436 23.288 49.2076 22.9147 47.8422 22.168C46.4982 21.4 45.4422 20.3227 44.6742 18.936C43.9276 17.5493 43.5542 15.9493 43.5542 14.136C43.5542 12.3013 43.9276 10.6907 44.6742 9.304C45.4209 7.91733 46.4662 6.85067 47.8102 6.104C49.1542 5.35733 50.7009 4.984 52.4502 4.984C54.1356 4.984 55.6396 5.34667 56.9622 6.072C58.3063 6.79733 59.3409 7.832 60.0662 9.176C60.8129 10.4987 61.1863 12.024 61.1863 13.752ZM56.5462 12.472C56.5249 11.32 56.1089 10.4027 55.2982 9.72C54.4876 9.016 53.4956 8.664 52.3222 8.664C51.2129 8.664 50.2742 9.00533 49.5062 9.688C48.7596 10.3493 48.3009 11.2773 48.1302 12.472H56.5462Z" fill="#575DFB"/>
<path d="M88.1043 0.664V23H83.6243V8.472L77.6403 23H74.2483L68.2323 8.472V23H63.7523V0.664H68.8403L75.9443 17.272L83.0483 0.664H88.1043ZM90.6775 14.072C90.6775 12.28 91.0295 10.6907 91.7335 9.304C92.4588 7.91733 93.4295 6.85067 94.6455 6.104C95.8828 5.35733 97.2588 4.984 98.7735 4.984C100.096 4.984 101.248 5.25067 102.229 5.784C103.232 6.31733 104.032 6.98933 104.629 7.8V5.272H109.141V23H104.629V20.408C104.053 21.24 103.253 21.9333 102.229 22.488C101.227 23.0213 100.064 23.288 98.7415 23.288C97.2482 23.288 95.8828 22.904 94.6455 22.136C93.4295 21.368 92.4588 20.2907 91.7335 18.904C91.0295 17.496 90.6775 15.8853 90.6775 14.072ZM104.629 14.136C104.629 13.048 104.416 12.12 103.989 11.352C103.563 10.5627 102.987 9.96533 102.261 9.56C101.536 9.13333 100.757 8.92 99.9255 8.92C99.0935 8.92 98.3255 9.12267 97.6215 9.528C96.9175 9.93333 96.3415 10.5307 95.8935 11.32C95.4668 12.088 95.2535 13.0053 95.2535 14.072C95.2535 15.1387 95.4668 16.0773 95.8935 16.888C96.3415 17.6773 96.9175 18.2853 97.6215 18.712C98.3468 19.1387 99.1148 19.352 99.9255 19.352C100.757 19.352 101.536 19.1493 102.261 18.744C102.987 18.3173 103.563 17.72 103.989 16.952C104.416 16.1627 104.629 15.224 104.629 14.136ZM122.637 5.016C124.749 5.016 126.456 5.688 127.757 7.032C129.058 8.35467 129.709 10.2107 129.709 12.6V23H125.229V13.208C125.229 11.8 124.877 10.7227 124.173 9.976C123.469 9.208 122.509 8.824 121.293 8.824C120.056 8.824 119.074 9.208 118.349 9.976C117.645 10.7227 117.293 11.8 117.293 13.208V23H112.813V5.272H117.293V7.48C117.89 6.712 118.648 6.11467 119.565 5.688C120.504 5.24 121.528 5.016 122.637 5.016ZM132.113 14.072C132.113 12.28 132.465 10.6907 133.169 9.304C133.895 7.91733 134.865 6.85067 136.081 6.104C137.319 5.35733 138.695 4.984 140.209 4.984C141.532 4.984 142.684 5.25067 143.665 5.784C144.668 6.31733 145.468 6.98933 146.065 7.8V5.272H150.577V23H146.065V20.408C145.489 21.24 144.689 21.9333 143.665 22.488C142.663 23.0213 141.5 23.288 140.177 23.288C138.684 23.288 137.319 22.904 136.081 22.136C134.865 21.368 133.895 20.2907 133.169 18.904C132.465 17.496 132.113 15.8853 132.113 14.072ZM146.065 14.136C146.065 13.048 145.852 12.12 145.425 11.352C144.999 10.5627 144.423 9.96533 143.697 9.56C142.972 9.13333 142.193 8.92 141.361 8.92C140.529 8.92 139.761 9.12267 139.057 9.528C138.353 9.93333 137.777 10.5307 137.329 11.32C136.903 12.088 136.689 13.0053 136.689 14.072C136.689 15.1387 136.903 16.0773 137.329 16.888C137.777 17.6773 138.353 18.2853 139.057 18.712C139.783 19.1387 140.551 19.352 141.361 19.352C142.193 19.352 142.972 19.1493 143.697 18.744C144.423 18.3173 144.999 17.72 145.425 16.952C145.852 16.1627 146.065 15.224 146.065 14.136ZM161.193 4.984C162.515 4.984 163.678 5.25067 164.681 5.784C165.683 6.296 166.473 6.968 167.049 7.8V5.272H171.561V23.128C171.561 24.7707 171.23 26.232 170.569 27.512C169.907 28.8133 168.915 29.8373 167.593 30.584C166.27 31.352 164.67 31.736 162.793 31.736C160.275 31.736 158.206 31.1493 156.585 29.976C154.985 28.8027 154.078 27.2027 153.865 25.176H158.313C158.547 25.9867 159.049 26.6267 159.817 27.096C160.606 27.5867 161.555 27.832 162.665 27.832C163.966 27.832 165.022 27.4373 165.833 26.648C166.643 25.88 167.049 24.7067 167.049 23.128V20.376C166.473 21.208 165.673 21.9013 164.649 22.456C163.646 23.0107 162.494 23.288 161.193 23.288C159.699 23.288 158.334 22.904 157.097 22.136C155.859 21.368 154.878 20.2907 154.153 18.904C153.449 17.496 153.097 15.8853 153.097 14.072C153.097 12.28 153.449 10.6907 154.153 9.304C154.878 7.91733 155.849 6.85067 157.065 6.104C158.302 5.35733 159.678 4.984 161.193 4.984ZM167.049 14.136C167.049 13.048 166.835 12.12 166.409 11.352C165.982 10.5627 165.406 9.96533 164.681 9.56C163.955 9.13333 163.177 8.92 162.345 8.92C161.513 8.92 160.745 9.12267 160.041 9.528C159.337 9.93333 158.761 10.5307 158.313 11.32C157.886 12.088 157.673 13.0053 157.673 14.072C157.673 15.1387 157.886 16.0773 158.313 16.888C158.761 17.6773 159.337 18.2853 160.041 18.712C160.766 19.1387 161.534 19.352 162.345 19.352C163.177 19.352 163.955 19.1493 164.681 18.744C165.406 18.3173 165.982 17.72 166.409 16.952C166.835 16.1627 167.049 15.224 167.049 14.136ZM191.712 13.752C191.712 14.392 191.67 14.968 191.584 15.48H178.624C178.731 16.76 179.179 17.7627 179.968 18.488C180.758 19.2133 181.728 19.576 182.88 19.576C184.544 19.576 185.728 18.8613 186.432 17.432H191.264C190.752 19.1387 189.771 20.5467 188.32 21.656C186.87 22.744 185.088 23.288 182.976 23.288C181.27 23.288 179.734 22.9147 178.368 22.168C177.024 21.4 175.968 20.3227 175.2 18.936C174.454 17.5493 174.08 15.9493 174.08 14.136C174.08 12.3013 174.454 10.6907 175.2 9.304C175.947 7.91733 176.992 6.85067 178.336 6.104C179.68 5.35733 181.227 4.984 182.976 4.984C184.662 4.984 186.166 5.34667 187.488 6.072C188.832 6.79733 189.867 7.832 190.592 9.176C191.339 10.4987 191.712 12.024 191.712 13.752ZM187.072 12.472C187.051 11.32 186.635 10.4027 185.824 9.72C185.014 9.016 184.022 8.664 182.848 8.664C181.739 8.664 180.8 9.00533 180.032 9.688C179.286 10.3493 178.827 11.2773 178.656 12.472H187.072ZM198.758 8.024C199.334 7.08533 200.081 6.34933 200.998 5.816C201.937 5.28267 203.004 5.016 204.198 5.016V9.72H203.014C201.606 9.72 200.54 10.0507 199.814 10.712C199.11 11.3733 198.758 12.5253 198.758 14.168V23H194.278V5.272H198.758V8.024Z" fill="black"/>
</svg>
